# xmcd
#
# Track frame offsets:
#	150
#	18930
#	38433
#	52811
#	70494
#	87111
#	105587
#	126447
#	139331
#	155159
#	172276
#
# Disc length: 2533 seconds
# Revision: 0
# Processed by: cddbd v1.5.2PL0 Copyright (c) Steve Scherf et al.
# Submitted via: dBpowerAMP V12.0
#
DISCID=9509e30b
DTITLE=Mia Rose Lynne - Open Space
DYEAR=2014
DGENRE=Country
TTITLE0=Southern Summer Rain
TTITLE1=The Burning Days
TTITLE2=All The Days
TTITLE3=I Wanted To Be Saved
TTITLE4=Secret Place
TTITLE5=I'll Be Yours
TTITLE6=Let Me Love You
TTITLE7=Nothing You Touch
TTITLE8=I Would For You
TTITLE9=That Wouldn't Be Me
TTITLE10=When The Sun Goes Down
EXTD=
EXTT0=
EXTT1=
EXTT2=
EXTT3=
EXTT4=
EXTT5=
EXTT6=
EXTT7=
EXTT8=
EXTT9=
EXTT10=
PLAYORDER=
